<svg xmlns="http://www.w3.org/2000/svg" width="40.606" height="54.73" viewBox="0 0 40.606 54.73"><defs><style>.a{fill:#e6e9ed;}.b,.e{fill:#5d9cec;}.c{fill:#ccd1d9;}.d{fill:#4a89dc;}.e{opacity:0.97;}.f{fill:#545c66;}.g{fill:#656d78;}.h{fill:#ffce54;}</style></defs><g transform="translate(0 0)"><path class="a" d="M46.035,57.247V54.506H12.7V7H9.92A.921.921,0,0,0,9,7.9v49.37a.921.921,0,0,0,.922.9H45.109A.923.923,0,0,0,46.035,57.247Z" transform="translate(-9 -3.431)"/><path class="b" d="M9,7.583v17.86h1.785V7H9.591A.6.6,0,0,0,9,7.583Z" transform="translate(-9 -3.431)"/><path class="c" d="M49.035,54.247V51.506H15.7V4H12.92a.921.921,0,0,0-.92.9v49.37a.921.921,0,0,0,.922.9H48.109A.923.923,0,0,0,49.035,54.247Z" transform="translate(-10.215 -2.215)"/><path class="a" d="M28.889,32H15V46.277c0,.327.417.595.926.595H51.111c.509,0,.926-.268.926-.595V32H28.889Z" transform="translate(-11.431 4.288)"/><path class="d" d="M12,4.583v17.86h1.785V4H12.591A.6.6,0,0,0,12,4.583Z" transform="translate(-10.215 -2.215)"/><path class="e" d="M51.111,1H15.926c-.509,0-.926.268-.926.595V19.442h8.324L30.731,12.3l2.787,2.677L40,8.734,51.111,19.442h.926V1.595C52.037,1.268,51.62,1,51.111,1ZM23.8,8.734c-1.279,0-2.315-.666-2.315-1.487S22.518,5.759,23.8,5.759s2.315.666,2.315,1.487S25.073,8.734,23.8,8.734Z" transform="translate(-11.431 -1)"/><g transform="translate(19.189 35.489)"><path class="c" d="M37.439,39.192H19.593a.595.595,0,1,1,0-1.19H37.439a.595.595,0,1,1,0,1.19Z" transform="translate(-18.998 -38.002)"/><path class="c" d="M37.439,42.192H19.593a.595.595,0,1,1,0-1.19H37.439a.595.595,0,1,1,0,1.19Z" transform="translate(-18.998 -39.217)"/><path class="c" d="M36.49,45.19h-11.9a.595.595,0,0,1,0-1.19h11.9a.595.595,0,0,1,0,1.19Z" transform="translate(-21.023 -40.432)"/><path class="c" d="M30.619,50.19A.595.595,0,0,1,30.612,49h.007a.595.595,0,1,1,0,1.19Z" transform="translate(-23.463 -42.457)"/><path class="c" d="M34.619,50.19A.595.595,0,0,1,34.612,49h.007a.595.595,0,0,1,0,1.19Z" transform="translate(-25.084 -42.457)"/><path class="c" d="M38.619,50.19A.595.595,0,0,1,38.612,49h.007a.595.595,0,0,1,0,1.19Z" transform="translate(-26.704 -42.457)"/></g><path class="f" d="M29.029,20.273a.6.6,0,0,0-.383-.254.558.558,0,0,0-.114,0,.558.558,0,0,0-.114,0,.591.591,0,0,0-.381.254l-4.581,6.872h4.289l2.248-3.372a.592.592,0,0,0,.822-.822Z" transform="translate(-9.136 -1.918)"/><path class="g" d="M36.807,14.019a.592.592,0,0,0-.383.254L29.463,24.714H44.377L37.416,14.273a.5.5,0,0,0-.5-.254A.652.652,0,0,0,36.807,14.019Z" transform="translate(-4.049 -0.995)"/><ellipse class="h" cx="1.785" cy="1.785" rx="1.785" ry="1.785" transform="translate(11.574 4.462)"/></g></svg>