<svg xmlns="http://www.w3.org/2000/svg" width="68.258" height="92" viewBox="0 0 68.258 92"><defs><style>.a{fill:#e6e9ed;}.b,.e{fill:#5d9cec;}.c{fill:#ccd1d9;}.d{fill:#4a89dc;}.e{opacity:0.97;}.f{fill:#545c66;}.g{fill:#656d78;}.h{fill:#ffce54;}</style></defs><g transform="translate(-9 -1)"><path class="a" d="M71.254,91.464V86.856H15.228V7h-4.68A1.548,1.548,0,0,0,9,8.505V91.5A1.549,1.549,0,0,0,10.55,93H69.7A1.552,1.552,0,0,0,71.254,91.464Z"/><path class="b" d="M9,7.98V38h3V7H9.994A1,1,0,0,0,9,7.98Z"/><path class="c" d="M74.254,88.464V83.856H18.228V4h-4.68A1.548,1.548,0,0,0,12,5.505v82.99A1.549,1.549,0,0,0,13.55,90H72.7A1.552,1.552,0,0,0,74.254,88.464Z" transform="translate(0)"/><path class="a" d="M38.347,32H15V56c0,.55.7,1,1.556,1H75.7c.856,0,1.556-.45,1.556-1V32H38.347Z" transform="translate(0 30)"/><path class="d" d="M12,4.98V35h3V4H12.994A1,1,0,0,0,12,4.98Z"/><path class="e" d="M75.7,1H16.556C15.7,1,15,1.45,15,2V32H28.992L41.444,20l4.685,4.5L57.024,14,75.7,32h1.556V2C77.258,1.45,76.558,1,75.7,1ZM29.786,14c-2.149,0-3.891-1.12-3.891-2.5S27.637,9,29.786,9s3.891,1.12,3.891,2.5S31.933,14,29.786,14Z" transform="translate(0)"/><g transform="translate(41.256 60.655)"><path class="c" d="M50,40H20a1,1,0,0,1,0-2H50a1,1,0,0,1,0,2Z" transform="translate(-18.998 -38.002)"/><path class="c" d="M50,43H20a1,1,0,0,1,0-2H50a1,1,0,0,1,0,2Z" transform="translate(-18.998 -38.002)"/><path class="c" d="M45,46H25a1,1,0,0,1,0-2H45a1,1,0,0,1,0,2Z" transform="translate(-18.998 -38.002)"/><path class="c" d="M31.026,51a1,1,0,0,1-.011-2h.011a1,1,0,1,1,0,2Z" transform="translate(-18.998 -38.002)"/><path class="c" d="M35.026,51a1,1,0,0,1-.011-2h.011a1,1,0,0,1,0,2Z" transform="translate(-18.998 -38.002)"/><path class="c" d="M39.026,51a1,1,0,0,1-.011-2h.011a1,1,0,0,1,0,2Z" transform="translate(-18.998 -38.002)"/></g><path class="f" d="M32.824,20.448a1,1,0,0,0-.643-.427.938.938,0,0,0-.191,0,.938.938,0,0,0-.191,0,.993.993,0,0,0-.641.427L23.457,32h7.21l3.778-5.668a1,1,0,0,0,1.381-1.382Z" transform="translate(9.616 11.406)"/><path class="g" d="M41.808,14.021a1,1,0,0,0-.644.427L29.463,32h25.07l-11.7-17.552A.849.849,0,0,0,42,14.021,1.1,1.1,0,0,0,41.808,14.021Z" transform="translate(22.258 8.871)"/><circle class="h" cx="3" cy="3" r="3" transform="translate(28.456 8.5)"/></g></svg>
