<svg xmlns="http://www.w3.org/2000/svg" width="53.413" height="54.73" viewBox="0 0 53.413 54.73"><defs><style>.a{fill:#4388b9;}.b{fill:#e6e7e8;}.c{fill:#b0b1b5;}.d{fill:#dad7dc;}.e{fill:#dc594e;}.f{fill:#41a28d;}.g{fill:#ffd25a;}.h{fill:#d6b24e;}.i{fill:#4abaa4;}</style></defs><g transform="translate(0 0)"><path class="a" d="M54.789,8.418H24.614v52.7H63.809V17.645Z" transform="translate(-12.429 -6.385)"/><path class="b" d="M54.13,5h-26.1V57.7H67.227V18.4Z" transform="translate(-13.814 -5)"/><path class="c" d="M71.9,18.1H85L71.9,5Z" transform="translate(-31.586 -5)"/><g transform="translate(17.323 24.492)"><path class="d" d="M33.25,44.7H66.236v.9H33.25Z" transform="translate(-33.25 -44.697)"/><path class="d" d="M33.25,49.64H66.236v.9H33.25Z" transform="translate(-33.25 -46.699)"/><path class="d" d="M33.25,54.582H66.236v.9H33.25Z" transform="translate(-33.25 -48.701)"/><path class="d" d="M33.25,59.525H66.236v.9H33.25Z" transform="translate(-33.25 -50.704)"/><path class="d" d="M33.25,64.468H66.236v.9H33.25Z" transform="translate(-33.25 -52.706)"/><path class="d" d="M59.575,69.411H76.9v.9H59.575Z" transform="translate(-43.915 -54.709)"/><path class="d" d="M59.575,74.354H76.9v.9H59.575Z" transform="translate(-43.915 -56.711)"/><path class="d" d="M59.575,79.3H76.9v.9H59.575Z" transform="translate(-43.915 -58.713)"/></g><ellipse class="e" cx="12.03" cy="12.03" rx="12.03" ry="12.03" transform="translate(0 24.537)"/><path class="f" d="M33.729,10.7H47.166V26.654H33.729Z" transform="translate(-16.79 -7.308)"/><path class="g" d="M30.726,61.641a1.129,1.129,0,0,1,.079.121,1.23,1.23,0,0,1-.237,1.6,1.694,1.694,0,0,1-.162.141s.01.046.019.125c.05.4.108,1.6-1.024,1.6a23.177,23.177,0,0,1-4.556-.16,4.569,4.569,0,0,1-1.97-.533c-.275-.208-1.09-.851-1.09-.851V57.809l.4-.079s1.841-.237,2.688-3.135a6.3,6.3,0,0,0,.179-2.4c-.073-.726,0-1.646.938-1.381,1.49.426,1.623,3.166,1.623,3.166A8.219,8.219,0,0,1,27.4,56.9a13.559,13.559,0,0,0,3.1.189,1.115,1.115,0,0,1,1.121.5c.211.369.25.932-.366,1.751-.04.056-.087.114-.135.173a1.154,1.154,0,0,1,.1.171,1.475,1.475,0,0,1-.31,1.772A2.564,2.564,0,0,1,30.726,61.641Z" transform="translate(-12.187 -22.71)"/><path class="b" d="M19.807,61.857h1.537v7.191H19.807Z" transform="translate(-11.643 -27.165)"/><path class="h" d="M14.051,61.462h4.033v7.66H14.051Z" transform="translate(-9.311 -27.002)"/><path class="b" d="M27.991,52.107a.965.965,0,0,0-.57-.932,1.938,1.938,0,0,0-.161,1.182q.035.356.036.713A.922.922,0,0,0,27.991,52.107Z" transform="translate(-14.37 -23.073)"/><g transform="translate(15.843 36.665)"><path class="h" d="M35.614,65.353a1.154,1.154,0,0,1,.1.171l-2.85-.171,2.881-.173C35.708,65.235,35.662,65.293,35.614,65.353Z" transform="translate(-32.41 -65.18)"/><path class="h" d="M35.671,68.922a1.128,1.128,0,0,1,.079.121l-1.757-.15,1.871-.156A2.563,2.563,0,0,1,35.671,68.922Z" transform="translate(-32.865 -66.621)"/><path class="h" d="M34.584,72.085s.01.046.019.125L32.1,72.081l2.648-.137A1.692,1.692,0,0,1,34.584,72.085Z" transform="translate(-32.098 -67.92)"/></g><path class="i" d="M46.821,26.144c-.035-1.165-.083-4.2-.567-4.811-.519-.652-3.1-1.221-3.1-1.221l-.743-.379h0v-.562a2.749,2.749,0,0,0,.7-1.465v-.028c.212,0,.385-.347.385-.775a1.788,1.788,0,0,0-.028-.309c.047-.248.335-1.951-.457-2.3,0,0-.3-1.289-2.282-.807s-1.91,1.848-1.91,1.848a10.7,10.7,0,0,0,.1,1.2,1.792,1.792,0,0,0-.039.362c0,.428.172.775.385.775v.028a2.749,2.749,0,0,0,.7,1.465v.564l0,0h0l-.743.379h0s-2.584.569-3.1,1.221c-.484.608-.532,3.647-.567,4.811Z" transform="translate(-17.522 -8.396)"/></g></svg>