<svg xmlns="http://www.w3.org/2000/svg" width="44.303" height="44.303" viewBox="0 0 44.303 44.303"><defs><style>.a{fill:#36d28f;}.b{fill:#ade5ff;}</style></defs><g transform="translate(0 0)"><path class="a" d="M31.286,10a21.227,21.227,0,0,0-7.89,1.511l-.861-1.483-3.422,5.964,6.876-.019-.83-1.429a17.827,17.827,0,1,1-11.7,16.743H10A21.286,21.286,0,1,0,31.286,10Zm0,0" transform="translate(-9.135 -9.135)"/><path class="b" d="M120.382,106.191A14.191,14.191,0,1,1,106.191,92,14.191,14.191,0,0,1,120.382,106.191Zm0,0" transform="translate(-84.039 -84.039)"/><path d="M37.815,6.488A22.179,22.179,0,0,0,14.641,1.306L14.148.458A.865.865,0,0,0,13.4.028h0a.866.866,0,0,0-.748.435L9.228,6.427a.865.865,0,0,0,.75,1.3h0L16.857,7.7A.865.865,0,0,0,17.6,6.4l-.3-.509A16.962,16.962,0,1,1,5.192,22.152a.865.865,0,0,0-.865-.865H.865A.865.865,0,0,0,0,22.152,22.152,22.152,0,0,0,37.815,37.815a22.152,22.152,0,0,0,0-31.327ZM22.152,42.573a20.447,20.447,0,0,1-20.4-19.556H3.481A18.691,18.691,0,0,0,35.368,35.368,18.694,18.694,0,0,0,15.726,4.6a.865.865,0,0,0-.451,1.247l.077.134-3.879.01L13.4,2.624l.109.187a.864.864,0,0,0,1.069.369,20.423,20.423,0,1,1,7.569,39.393Zm0,0"/><path d="M363.474,130.3a.865.865,0,0,0-1.222,1.225l.006.006a.863.863,0,0,0,1.22,0,.868.868,0,0,0,0-1.225Zm0,0" transform="translate(-330.676 -118.794)"/><path d="M104.719,85.1a.866.866,0,0,0-.335-1.177,15.163,15.163,0,0,0-9.309-1.769,15.055,15.055,0,1,0,14.905,7.2.865.865,0,1,0-1.485.89,13.325,13.325,0,1,1-4.954-4.8A.866.866,0,0,0,104.719,85.1Zm0,0" transform="translate(-74.905 -74.925)"/><path d="M247.86,120.514v-.649a.865.865,0,1,0-1.731,0v.649a.865.865,0,1,0,1.731,0Zm0,0" transform="translate(-224.831 -108.703)"/><path d="M245.871,366.365v.649a.865.865,0,1,0,1.731,0v-.649a.865.865,0,1,0-1.731,0Zm0,0" transform="translate(-224.596 -333.873)"/><path d="M365.5,246.994a.865.865,0,0,0,.865.865h.649a.865.865,0,1,0,0-1.731h-.649A.865.865,0,0,0,365.5,246.994Zm0,0" transform="translate(-333.873 -224.831)"/><path d="M119.865,245.871a.865.865,0,0,0,0,1.731h.649a.865.865,0,0,0,0-1.731Zm0,0" transform="translate(-108.703 -224.596)"/><path d="M180.9,175.7a.865.865,0,0,0-.865-.865h-3.968l-6.487-6.487a.865.865,0,0,0-1.224,1.224l6.741,6.741a.865.865,0,0,0,.612.254h4.326A.865.865,0,0,0,180.9,175.7Zm0,0" transform="translate(-153.552 -153.552)"/></g></svg>