<svg xmlns="http://www.w3.org/2000/svg" width="43.749" height="54.73" viewBox="0 0 43.749 54.73"><defs><style>.a{fill:#0dd396;}.b{fill:#06ba9b;}.c{fill:#08446d;}.d{fill:#00233f;}.e{fill:#d32a0f;}.f{fill:#a00d05;}</style></defs><g transform="translate(0 0)"><path class="a" d="M70.586,23.692,73.781,20.5l-1.242-1.242a11.717,11.717,0,0,0,1.686-4.082H76V10.648H74.224a11.717,11.717,0,0,0-1.686-4.082l1.242-1.154L70.586,2.218,69.344,3.461a11.717,11.717,0,0,0-4.082-1.686V0H60.737V1.775a11.717,11.717,0,0,0-4.082,1.686L55.413,2.218,52.218,5.413l1.242,1.242a11.717,11.717,0,0,0-1.686,4.082H50v4.525h1.775a11.717,11.717,0,0,0,1.686,4.082L52.218,20.5l3.194,3.194,1.242-1.242a11.717,11.717,0,0,0,4.082,1.686V25.91h4.525V24.135a11.717,11.717,0,0,0,4.082-1.686ZM59.761,16.149a4.518,4.518,0,1,1,6.389,0A4.5,4.5,0,0,1,59.761,16.149Z" transform="translate(-50)"/><path class="b" d="M103.834,50.551a11.717,11.717,0,0,0,1.686-4.082h1.775V41.944H105.52a11.717,11.717,0,0,0-1.686-4.082l1.242-1.154L103.568,35.2l-6.034,5.945a4.519,4.519,0,0,1-6.389,6.389L85.2,53.479l1.508,1.508,1.242-1.242a11.717,11.717,0,0,0,4.082,1.686v1.775h4.525V55.431a11.717,11.717,0,0,0,4.082-1.686l1.242,1.242,3.194-3.194Z" transform="translate(-81.296 -31.296)"/><path class="c" d="M198.129,227.989l-3.816-3.816-1.508,1.508a12.451,12.451,0,0,0-4.792-1.952V221.6h-5.324v2.13a14.013,14.013,0,0,0-4.792,1.952l-1.508-1.508-3.816,3.816,1.508,1.508a12.451,12.451,0,0,0-1.952,4.792H170v5.324h2.13a14.013,14.013,0,0,0,1.952,4.792l-1.508,1.509,3.816,3.816,1.508-1.508a12.453,12.453,0,0,0,4.792,1.952v2.13h5.324v-2.13a14.014,14.014,0,0,0,4.792-1.952l1.508,1.508,3.816-3.816L196.62,244.4a12.452,12.452,0,0,0,1.952-4.792h2.13v-5.324h-2.13a14.013,14.013,0,0,0-1.952-4.792Zm-8.962,12.689a5.251,5.251,0,0,1-7.542,0,5.333,5.333,0,1,1,7.542,0Z" transform="translate(-157.13 -197.572)"/><path class="d" d="M229.079,225.682a12.452,12.452,0,0,0-4.792-1.952V221.6h-5.324v2.13a14.015,14.015,0,0,0-4.792,1.952l-1.508-1.508-1.863,1.863,7.1,7.1a5.222,5.222,0,0,1,7.454.089,5.387,5.387,0,0,1,.089,7.454l7.1,7.1,1.863-1.863-1.508-1.508a12.452,12.452,0,0,0,1.952-4.792h2.13v-5.324h-2.13a14.014,14.014,0,0,0-1.952-4.792l1.508-1.508-3.816-3.816Z" transform="translate(-193.405 -197.572)"/><path class="e" d="M324.64,83.362V80.7h-1.065a7.173,7.173,0,0,0-.976-2.4l.71-.71-1.863-1.863-.71.71a7.173,7.173,0,0,0-2.4-.976V74.4h-2.662v1.065a7.172,7.172,0,0,0-2.4.976l-.71-.71-2.041,1.863.71.71a7.172,7.172,0,0,0-.976,2.4H309.2v2.662h1.065a7.172,7.172,0,0,0,.976,2.4l-.71.71,1.863,1.863.71-.71a7.173,7.173,0,0,0,2.4.976v1.065h2.662V88.6a7.173,7.173,0,0,0,2.4-.976l.71.71,1.863-1.863-.532-.71a7.173,7.173,0,0,0,.976-2.4Zm-7.72,1.331a2.662,2.662,0,1,1,2.662-2.662A2.615,2.615,0,0,1,316.92,84.693Z" transform="translate(-280.891 -66.148)"/><path class="f" d="M386.166,80.7a7.171,7.171,0,0,0-.976-2.4l.71-.71-1.863-1.863-.71.71a7.173,7.173,0,0,0-2.4-.976V74.4H379.6v4.969a2.729,2.729,0,0,1,2.662,2.662,2.67,2.67,0,0,1-2.662,2.662v4.969h1.331V88.6a7.173,7.173,0,0,0,2.4-.976l.71.71,1.863-1.863-.71-.71a7.171,7.171,0,0,0,.976-2.4h1.065V80.7Z" transform="translate(-343.482 -66.148)"/></g></svg>